<?xml version="1.0" encoding="UTF-8" standalone="no"?>
<!-- Generator: Adobe Illustrator 26.1.0, SVG Export Plug-In . SVG Version: 6.00 Build 0)  -->

<svg
   version="1.1"
   id="a"
   x="0px"
   y="0px"
   viewBox="0 0 595.5 146"
   style="enable-background:new 0 0 595.5 146;"
   xml:space="preserve"
   xmlns="http://www.w3.org/2000/svg"
   xmlns:svg="http://www.w3.org/2000/svg"><defs
   id="defs61" />
<style
   type="text/css"
   id="style2">
	.st0{fill:none;stroke:#263E7E;stroke-width:3;stroke-linejoin:round;}
	.st1{fill:#263E7E;}
	.st2{enable-background:new    ;
   fill:white}
	.st3{fill:none;stroke:#ffffff;stroke-width:4;stroke-linejoin:round;}
</style>
<g
   id="b"
   transform="translate(-5.1899 -107.04)">
	<g
   id="c"
   transform="matrix(1.604 0 0 1.604 -9.3038 7.329)">
		<g
   id="d"
   transform="matrix(1.002 0 0 .99997 -15.293 18.97)">
			<path
   id="e"
   class="st0"
   d="M393.4,45.3c-1.4,16.1-13.7,26.5-34,37.3c5.4,3,9.7,8.6,9.7,16.8c0,6.7-2.7,11.9-6.7,15.5     c-5,4.7-13.2,7-25.9,7c-7.1,0-12.5-0.6-15.7-1v-20.1c-4.5,1.8-9.3,3.4-14.4,5l4.7,15.3h-13.7l-3.5-11.8     c-9.3,2.5-19.3,4.7-29.6,6.6l-1.5,5.1h-13.2l0.8-2.7c-1.9,0.3-3.8,0.6-5.7,0.9v1.7h-11.5c-78.4,11.2-164,11.7-164,11.7h323.7     L393.4,45.3z M348.3,88.2c-4.7,2.3-9.7,4.6-15,7v16c1.7,0.3,3.8,0.3,6.7,0.3c8.2,0,15.5-3.3,15.5-12.6     C355.6,93.5,352.7,90,348.3,88.2L348.3,88.2z" />
			<path
   id="f"
   class="st1"
   d="M387.7,61c-0.8,1.2-1.8,2.4-2.8,3.5h8.4V61H387.7z M381.5,67.9c-1.3,1.2-2.7,2.3-4.2,3.5h15.9v-3.5     H381.5z M372.4,74.9c-1.7,1.2-3.6,2.3-5.5,3.5h26.3v-3.5H372.4z M360.7,81.9c-0.5,0.2-0.9,0.5-1.3,0.7c1.4,0.8,2.7,1.7,3.8,2.8     h29.9v-3.5H360.7z M346.9,88.9c-2.4,1.1-4.8,2.3-7.4,3.5h14.1c-1-1.5-2.4-2.6-4-3.5H346.9z M366.1,88.9c0.7,1.1,1.3,2.2,1.7,3.5     H393v-3.5H366.1z M333.4,95.9v3.5h22.2c0-0.1,0-0.2,0-0.4c0-1.1-0.1-2.2-0.4-3.1H333.4z M368.8,95.9c0.2,1.1,0.3,2.3,0.3,3.5h24     v-3.5H368.8z M315.1,102.9c-2.8,1-5.8,2-8.8,2.9l0.2,0.6h14.2v-3.5H315.1z M333.4,102.9v3.5h20c0.7-1,1.3-2.2,1.7-3.5H333.4z      M368.8,102.9c-0.2,1.2-0.5,2.4-0.8,3.5h25v-3.5H368.8z M291.9,109.9c-4.8,1.2-9.7,2.4-14.7,3.5h17.7l-1-3.5H291.9z M307.5,109.9     l1.1,3.5h12.1v-3.5H307.5z M333.4,109.9v1.4c1.7,0.3,3.8,0.3,6.7,0.3c3.2,0,6.3-0.5,8.9-1.7L333.4,109.9L333.4,109.9z      M366.4,109.9c-0.7,1.3-1.6,2.4-2.5,3.5H393v-3.5H366.4z M263.9,116.9l-1,3.5H297l-1-3.5H263.9z M309.6,116.9l1.1,3.5h10v-3.5     H309.6z M359.9,116.9c-2.2,1.5-5,2.7-8.2,3.5H393v-3.5H359.9z M250.3,118.5c-1.9,0.3-3.8,0.6-5.7,0.9v0.9h5.1L250.3,118.5z      M212.6,123.8c-11.5,1.4-22.9,2.5-34,3.5h214.3v-3.5H212.6z M128.7,130.8c-34.9,1.8-59.6,2-59.6,2h323.7v-2H128.7z" />
		</g>
		<g
   id="g"
   transform="translate(151.93 -77.536)">
			<g
   class="st2"
   id="g9">
				<path
   d="M-111.9,162.2c-0.2-4.8-0.5-10.7-0.4-15.8h-0.2c-1.2,4.6-2.6,9.7-4.2,14.4l-5.2,16.3h-5l-4.8-16      c-1.4-4.8-2.6-9.9-3.6-14.6h-0.1c-0.2,5-0.4,10.9-0.6,16l-0.8,15.1h-6.1l2.4-37.5h8.6l4.7,15.1c1.3,4.4,2.4,8.9,3.3,13h0.2      c1-4.1,2.2-8.7,3.5-13.1l4.9-15h8.5l2.1,37.5h-6.3L-111.9,162.2z"
   id="path7" />
			</g>
			<g
   class="st2"
   id="g15">
				<path
   d="M-94,170.4l-2,7.1h-4.5l7.6-25h5.5l7.7,25h-4.7l-2.2-7.1H-94z M-87.2,167l-1.9-6.2c-0.5-1.5-0.8-3.2-1.2-4.7h-0.1      c-0.4,1.4-0.7,3.2-1.1,4.7l-1.8,6.2H-87.2z"
   id="path11" />
				<path
   d="M-75.7,152.8c1.9-0.3,4.3-0.5,6.9-0.5c4.4,0,7.5,1,9.7,2.9c2.3,2,3.7,4.9,3.7,9.2c0,4.5-1.4,7.8-3.7,10      c-2.4,2.3-6.1,3.4-10.8,3.4c-2.5,0-4.4-0.1-5.9-0.3V152.8z M-71.4,174c0.6,0.1,1.5,0.1,2.4,0.1c5.6,0,9-3.2,9-9.6      c0-5.5-3-8.7-8.4-8.7c-1.4,0-2.4,0.1-3,0.3V174z"
   id="path13" />
			</g>
			<g
   class="st2"
   id="g19">
				<path
   d="M-37.5,166.4h-9v7.4h10v3.8h-14.4v-25H-37v3.8h-9.5v6.5h9V166.4z"
   id="path17" />
			</g>
			<g
   class="st2"
   id="g21">
			</g>
			<g
   class="st2"
   id="g25">
				<path
   d="M-23.8,140.5c2.1-0.4,5.8-0.8,9.5-0.8c4.8,0,7.8,0.6,10.2,2.4c2.2,1.4,3.7,3.8,3.7,7c0,3.5-2.1,6.6-5.9,8.1v0.1      c3.8,1,7.2,4.1,7.2,9.3c0,3.3-1.4,6-3.4,7.7c-2.5,2.3-6.7,3.5-13.2,3.5c-3.6,0-6.3-0.3-8-0.5V140.5z M-17.4,155.3h3.3      c4.5,0,7-2.2,7-5.4c0-3.5-2.5-5.1-6.7-5.1c-1.9,0-3,0.1-3.7,0.3V155.3z M-17.4,172.6c0.8,0.2,2,0.2,3.4,0.2      c4.2,0,7.9-1.7,7.9-6.3c0-4.3-3.6-6.1-8.1-6.1h-3.2V172.6z"
   id="path23" />
			</g>
			<g
   class="st2"
   id="g29">
				<path
   d="M11.5,177.5v-10.4L4,152.5H9l2.9,6.4c0.8,1.9,1.4,3.3,2,5h0.1c0.6-1.6,1.3-3.2,2.1-5l2.9-6.4h4.9L15.9,167v10.5H11.5z"
   id="path27" />
			</g>
			<g
   class="st2"
   id="g33">
				<path
   d="M-104.5,182.7c2.9-0.5,6.5-0.8,10.4-0.8c6.7,0,11.3,1.4,14.5,4.3c3.4,3,5.6,7.4,5.6,13.8c0,6.7-2.2,11.7-5.6,14.9      c-3.5,3.4-9.2,5.1-16.1,5.1c-3.8,0-6.7-0.2-8.8-0.5V182.7z M-98,214.5c0.9,0.2,2.3,0.2,3.6,0.2c8.5,0.1,13.5-4.8,13.5-14.4      c0.1-8.3-4.5-13-12.6-13c-2.1,0-3.5,0.2-4.4,0.4V214.5z"
   id="path31" />
			</g>
			<g
   class="st2"
   id="g45">
				<path
   d="M-55.6,208.6h-9v7.4h10v3.8h-14.4v-25h13.8v3.8h-9.5v6.5h9V208.6z"
   id="path35" />
				<path
   d="M-50.2,214.7c1.4,0.9,3.5,1.6,5.7,1.6c2.8,0,4.3-1.4,4.3-3.4c0-1.9-1.2-3-4.2-4.2c-3.9-1.5-6.4-3.7-6.4-7.3      c0-4.1,3.2-7.2,8.4-7.2c2.6,0,4.5,0.6,5.7,1.3l-1.1,3.7c-0.8-0.5-2.5-1.2-4.7-1.2c-2.8,0-3.9,1.6-3.9,3c0,1.9,1.4,2.8,4.5,4.1      c4.1,1.6,6.1,3.8,6.1,7.4c0,4-2.9,7.5-9,7.5c-2.5,0-5.1-0.8-6.4-1.6L-50.2,214.7z"
   id="path37" />
				<path
   d="M-26.8,194.7v25h-4.3v-25H-26.8z"
   id="path39" />
				<path
   d="M-2.2,218.5c-1.5,0.6-4.5,1.4-7.7,1.4c-4,0-7.1-1.1-9.3-3.3c-2.1-2.1-3.4-5.4-3.3-9.2c0-7.9,5.4-13,13.2-13      c2.9,0,5.2,0.6,6.3,1.2l-1,3.7c-1.3-0.6-2.9-1.1-5.4-1.1c-5.1,0-8.6,3.2-8.6,9c0,5.7,3.3,9.1,8.3,9.1c1.6,0,2.7-0.2,3.3-0.5      v-6.2h-4.2v-3.6h8.4V218.5z"
   id="path41" />
				<path
   d="M2.9,219.7v-25h4.9l6.1,10.7c1.6,2.8,3,5.7,4.1,8.4h0.1c-0.3-3.3-0.4-6.6-0.4-10.4v-8.7h4v25h-4.5l-6.2-11      c-1.5-2.7-3.1-5.8-4.3-8.6l-0.1,0c0.2,3.2,0.2,6.5,0.2,10.7v8.9H2.9z"
   id="path43" />
			</g>
			<g
   class="st2"
   id="g53">
				<path
   class="st3"
   d="M36.4,142.6h12.8v63.6h28.7v11.5H36.4V142.6z"
   id="path47" />
				<path
   class="st3"
   d="M102,196.3l-6,21.3H82.8l22.4-75h16.3l22.7,75h-13.7l-6.3-21.3H102z M122,186l-5.5-18.5      c-1.3-4.6-2.5-9.7-3.5-14h-0.2c-1,4.3-2.1,9.6-3.3,14l-5.4,18.5H122z"
   id="path49" />
				<path
   class="st3"
   d="M154,143.6c4-0.9,11.4-1.6,18.6-1.6c9.4,0,15.3,1.2,20,4.8c4.4,2.8,7.3,7.7,7.3,14c0,6.9-4,13.2-11.6,16.3      v0.2c7.4,2,14.1,8.2,14.1,18.6c0,6.7-2.7,11.9-6.7,15.5c-5,4.7-13.2,7-25.9,7c-7.1,0-12.5-0.6-15.7-1V143.6z M166.7,173.2h6.5      c8.8,0,13.8-4.5,13.8-10.8c0-7-5-10.2-13.1-10.2c-3.7,0-5.9,0.2-7.3,0.6V173.2z M166.7,207.7c1.7,0.3,3.8,0.3,6.7,0.3      c8.2,0,15.5-3.3,15.5-12.6c0-8.7-7.1-12.2-15.9-12.2h-6.3V207.7z"
   id="path51" />
			</g>
		</g>
	</g>
</g>
</svg>
