<svg overflow="hidden" version="1.1" viewBox="0 0 1242 134" xmlns="http://www.w3.org/2000/svg">
 <defs>
  <clipPath id="a">
   <rect x="-1" y="286" width="1242" height="134"/>
  </clipPath>
 </defs>
 <g transform="translate(1 -286)" clip-path="url(#a)" fill-rule="evenodd">
  <path transform="matrix(1 0 0 -1 0 419)" d="m60 0.024c-26 16-60 39-60 79v43c12 4.6 31 10 59 10 29 0 49-6.3 60-10v-43c0-41-34-64-59-79" fill="#fff"/>
  <path transform="matrix(1 0 0 -1 5 413)" d="m33 15c7-5.5 15-10 22-15 0.067 6.6-0.15 10 4.3 15 1.8 1.9 3.7 3.8 5.4 5.6 1.3 1.3 2.3 2.3 2.9 2.3 0.43 0 0.62-0.22 0.62-0.8 0-0.59 0.26-2.7 1.6-5.3 1.7-3.2 4.1-3.6 4.9-3.8 19 14 35 33 35 60v39c-4.7 1.6-24 9-55 9-31 0-50-7.4-55-9v-39c0-12 3.1-22 8.2-31 0.51 5.4 4.2 8 4.2 13 0 3.7-1.1 6.1-1.1 9.2 0 5.6 7.6 17 12 22 0.12 0.14 0.37 0.47 0.69 0.47 0.28 0 0.5-0.2 0.67-0.46 0.4-0.61 0.58-0.94 1-0.94 0.43 0 0.6 0.24 0.6 0.62 0 0.98-1.1 2.6-1.1 9 0 4.5 1 5.4 3.8 8.1 0.51 0.5 2.1 2 3.6 2 1.7 0 2.5-0.98 3.5-2 1.7-1.7 4.1-4.8 4.5-5.3 0.11-0.14 0.21-0.26 0.44-0.26 0.8 0 1.5 0.24 4.9 0.24 6.3 0 16-0.98 21-2.6 2.5-0.82 3-1.4 3.7-1.4 0.33 0 0.35 0.21 0.35 0.38 0 0.32-0.66 0.82-0.66 1.3 0 0.29 0.23 0.5 0.46 0.62 3.6 1.9 6.7 3.4 9.6 3.4 1.7 0 2.5-1.4 3.2-2.8 0.54-1.1 1.1-2.6 1.1-4.1 0-3.8-1.5-6.2-2.6-7.8 0.56-0.57 1.4-1.4 1.8-2 0.86-1 1.9-2.4 1.9-3.8 0-0.6-0.29-1.5-0.46-2.3-0.075-0.34-0.37-1-0.96-1-0.53 0.01-0.67 0.59-0.69 1.1-0.0042 0.11 0 0.34 0 0.39 0 1.1-0.31 2.6-1.3 3.6-1.2 1.2-2.3 2.1-3.6 2.1-0.081 0-0.37 6e-4 -0.47 6e-4 -2.3 0-3.3-0.98-3.9-1.6-0.68-0.66-1.2-1.5-1.2-2.7 0-0.68 0.46-1.5 1.1-2.7 0.36-0.72 1.3-2.4 1.8-3.3 0.44-0.77 1-1 1.7-1 1.6 0 2.9 0.22 2.9 0.68 0 0.13-0.07 0.24-0.28 0.24-0.091 0-0.31-0.027-0.5-0.027-2 0-3.1 2.6-4.2 4.9 0.78 0.76 1.7 1.5 3.3 1.5 2 0 3.4-1.4 3.4-3.1 0-0.88-0.27-1.6-0.43-1.9-0.08-0.17-0.12-0.27-0.12-0.37 0-0.28 0.35-0.33 0.91-0.46 0.2-0.045 0.58-0.13 0.81-0.2 0.6-0.17 1.2-0.69 1.5-1.4 0.18-0.48 0.59-1.6 0.68-1.8 0.34-1 0.88-2.5 0.88-4.2 0-1.8-0.12-2.3-0.61-4.1-0.63-2.3-0.91-3.2-1-4.5 0.22-0.4 0.24-0.51 0.33-0.74 0.35-0.74 0.81-2.1 0.81-3.5v-1.2c0-2.3-0.93-4.1-1.9-5.5-0.78-1.1-1.9-2.5-2.6-3.4-0.42-0.5-0.98-0.86-1.6-0.86-0.3 0-0.65 0.1-1 0.19-0.39 0.098-1.2 0.31-1.6 0.4-1.4 0.34-1.9 1.2-2.3 2.4-0.066 0.18-0.27 0.69-0.34 0.85-0.33 0.84-0.51 1.4-1 1.4-0.39 0-0.76-0.25-1.1-0.83-1.4-2.1-2.1-2.8-4.5-3.4-0.84-0.21-2.6-0.56-3.5-0.77-1.4-0.32-4-0.99-5.5-0.99-0.31 0-0.63 0.019-0.97 0.056-2 0.28-3.4 0.41-5.8 3.3-3.4 4-3 4.6-3.2 10-0.023 0.61-0.22 1.4-0.86 1.4-0.57 0-0.81-1.2-1-2.8-0.24-1.9-0.69-3.9-1.6-3.9-0.66 0-1.1 0.1-2.1 0.43-1.2 0.4-4.3 1.4-5.9 2-2.2 0.72-4.3 1.3-5.1 3.2-0.4 0.91-1.1 2.6-1.5 3.5-0.26 0.62-0.46 0.94-0.87 0.94-0.58 0-0.71-0.69-0.78-1.2-0.075-0.62-0.23-2-0.31-2.9-0.33-3.8-1.1-5.4-2.7-7.5-0.74-0.97-1.4-2-2.3-3-1.7-2.2-2.7-4.5-2.7-8.8 0.0037-0.28-0.017-1.9 0-2.6 0.15-6.4 1.8-9.6 13-18zm39 20c-0.51-0.13-1.5-0.37-6-0.37-6.8 0-7.9 1.7-7.9 3 0 2.2 9.7 3.7 13 3.7 3.7 0 5.3-1.2 5.3-2.1 0-1-1.6-3.5-4.9-4.3zm-13 42c0 1.5-1.8 3.8-4.8 3.8-2.7 0-4.8-2-5.3-3.6 0.65-1.3 1.3-2.6 3.9-3.4 0.34-0.1 0.69-0.11 0.69-0.4 0-0.42-0.44-0.62-1.4-0.62-3 0-4.7 1.2-5.5 2.2-0.76-0.11-1.6-0.4-2.7-0.44-0.9-0.033-1.3 0.57-1.3 1.4 0 0.52 0.15 1.1 0.46 1.7 0.17 0.35 0.35 0.71 0.48 0.97 0.46 0.89 1.2 2.9 3.9 4.4 0.31 0.18 1.1 0.67 1.5 0.91 1.5 0.89 2.7 1.1 4.5 1.1h1.3c2.2 0 3.3-0.61 4.2-1.4 1.9-1.6 3-2.5 3-3.7 0-1.3-0.072-2.4-1.2-3.8-0.93-1.2-2.3-2-3.2-2-0.25 0-0.32 0.13-0.32 0.27 0 0.18 0.2 0.28 0.42 0.45 0.72 0.58 1 1.6 1.3 2.2zm-27 8.7c0.67 0 1.2 0.44 2.2 1.6 2.3 2.5 4.4 2.8 4.4 3.9 0 0.47-0.3 0.94-0.62 1.4-2.4 3.7-3.4 5.8-4.9 8.5-0.52 0.98-1.2 1.7-1.7 1.7-0.83 0-1.7-0.97-2.2-1.8-0.72-1.2-1.4-2.5-1.4-3.7 0-1.8 0.45-5.1 1.2-7.2 0.82-2.3 2-4.3 3-4.3zm44 4.9c-0.11 0.062-0.49 0.2-0.49 0.58 0 0.44 0.32 0.89 0.97 1.8 1.5 2 3.5 4.4 4.3 4.4 0.37 0 0.59-0.25 1-1.1 0.27-0.51 0.5-1.4 0.5-2.2 0-2.6-0.92-4.5-2.3-6.6-0.71 0.68-2 2-4 3.1zm-2.6-40c0 0.9 0.74 2.3 0.74 3.5 0 1.5-1.8 1.9-3.2 2.1-3 0.41-4 0.28-4 0.93 0 0.45 0.4 0.92 0.94 1.7 0.8 1.1 2.7 1.6 3.7 1.7 1.3 0.18 2.8 0.36 4.6 0.36 2 0 3.7-0.3 4.5-0.43 1.8-0.32 2.1-1.1 2.1-1.9v-0.85c0-0.86-0.71-1.3-2-1.6-0.32-0.07-0.76-0.15-0.98-0.19-0.92-0.19-2.1-0.37-2.5-1.5-0.87-2.5-2.4-4.4-3.5-4.4-0.21 9e-3 -0.42 0.16-0.42 0.52" fill="#263E7E"/>
  <path transform="matrix(1 0 0 -1 23 413)" d="m49 17c0.16 1.7 0.92 4.6 0.92 5.7 0 0.58-0.19 0.8-0.63 0.8-0.61 0-1.6-0.98-2.9-2.3-1.7-1.8-3.6-3.7-5.4-5.6-4.5-4.7-4.3-8.6-4.4-15 5 3 9.6 5.9 13 8.2-0.51 2.8-0.93 4.7-0.59 8.4zm-47 17c-0.017 0.75 0.0038 2.4 0 2.6-0.054 4.3 0.97 6.6 2.7 8.9 0.83 1.1 1.5 2.1 2.3 3.1 1.6 2.1 2.4 3.8 2.7 7.6 0.079 0.9 0.24 2.3 0.31 3 0.066 0.55 0.2 1.2 0.79 1.2 0.41 0 0.61-0.33 0.87-0.95 0.38-0.89 1.1-2.6 1.5-3.5 0.86-2 3-2.5 5.2-3.3 1.6-0.53 4.7-1.6 6-2 1-0.33 1.5-0.44 2.2-0.44 0.96 0 1.4 2 1.7 3.9 0.21 1.6 0.46 2.8 1 2.8 0.64 0 0.84-0.76 0.87-1.4 0.21-5.5-0.15-6.1 3.3-10 2.5-3 3.9-3.1 5.9-3.4-0.74 0.22-1.7 1.1-1.7 2.9v2c0 0.98 0.12 2 0.61 3.1 0.23 0.53 0.5 1.5 0.76 2.1 0.44 1 0.23 1.3 0.23 2 0 0.75-0.25 1.5-0.84 3.3-0.31 0.92-0.72 2.3-1.1 3.4-1.2 3.4-1.7 4.2-5.9 4.8-1.3 0.17-7.1 0.99-8.4 1.2-4.6 0.65-8.3 0.87-10 4-2.3 3.7-2 8.2-4.2 8.2-1 0-1.6-1.1-1.6-2.8 0-1.8 0.67-4.6 0.67-9.5 0-4.3-0.4-5.5-2.9-8.6-0.65-0.82-1.5-2-2.1-2.7-1.9-2.3-2.7-3.6-2.6-6.4 0.29-7 1.4-12 1.9-15zm50 30c0.18-0.45 0.33-0.96 0.33-1.3 0-0.86-0.22-1.1-0.69-1.6-0.29-0.25-0.6-0.52-0.89-0.79-0.48-0.25-0.9-0.56-1.2-0.97-0.55-0.78-0.95-1.3-0.95-1.7 0-0.14 0.047-0.25 0.15-0.33-0.66 0.49-0.93 1.2-0.93 1.9 0 0.6 0.2 0.92 0.2 1.5 0 0.48-0.14 0.95-0.22 1.2-0.93 3.1-2.5 6.7-3.5 9.2-0.98 2.5-1.8 3.9-2.9 3.9-0.62 0-1.2-0.3-1.8-0.3 0.89 6e-4 2.3 0.81 3.2 2 1.1 1.4 1.2 2.5 1.2 3.8 0 0.57-0.24 1.1-0.7 1.6 1.4-1.4 2.3-3.2 3.3-5.2 2.1-4.4 3.9-9.2 5.4-13zm15 9.2c0.18-0.48 0.59-1.6 0.69-1.9 0.34-1 0.89-2.5 0.89-4.2 0-1.8-0.12-2.3-0.62-4.2-0.64-2.3-0.92-3.2-1-4.5-0.18 0.36-3.5 6.1-3.8 6.6-0.26 0.47-0.47 0.92-0.47 1.5 0 0.58 0.25 0.94 0.97 1.4 0.43 0.27 0.98 0.58 1.4 0.77 1.7 0.88 2.1 2 2.1 3.1 7e-4 0.49-0.071 0.99-0.15 1.5" fill="#B8BAD8"/>
  <g fill="#263E7E">
   <path transform="matrix(1 0 0 -1 139 395)" d="m402 22c0 0.65-0.045 1.2-0.22 1.7-0.69 2.2-2.6 4-5.3 4-3.6 0-6.2-3.1-6.2-7.9 0-4.1 2.1-7.6 6.2-7.6 2.3 0 4.5 1.5 5.3 3.9 0.22 0.65 0.3 1.4 0.3 2zm3.9 8.3c-0.085-1.5-0.17-3.2-0.17-5.8v-12c0-4.8-0.95-7.8-3-9.6-2-1.9-5-2.5-7.6-2.5-2.5 0-5.3 0.61-7 1.7l0.95 2.9c1.4-0.87 3.6-1.6 6.1-1.6 3.9 0 6.8 2 6.8 7.3v2.3h-0.086c-1.2-2-3.4-3.5-6.7-3.5-5.2 0-8.9 4.4-8.9 10 0 7.1 4.6 11 9.4 11 3.6 0 5.6-1.9 6.5-3.6h0.086l0.17 3.2zm-42-5.7c0 2.2-0.044 3.9-0.17 5.7h3.4l0.22-3.5h0.088c1 2 3.5 3.9 6.9 3.9 2.9 0 7.4-1.7 7.4-8.9v-13h-3.8v12c0 3.4-1.3 6.2-4.8 6.2-2.5 0-4.5-1.8-5.1-3.9-0.18-0.48-0.26-1.1-0.26-1.8v-13h-3.8zm-10-15v21h3.8v-21zm4.2 27c0.043-1.3-0.91-2.3-2.4-2.3-1.3 0-2.3 1-2.3 2.3 0 1.3 1 2.4 2.4 2.4 1.4 0 2.3-1 2.3-2.4zm-19-12c0 2.5-0.044 4.6-0.17 6.6h3.3l0.13-4.1h0.17c0.95 2.8 3.2 4.6 5.8 4.6 0.43 0 0.74-0.041 1.1-0.13v-3.6c-0.39 0.089-0.78 0.13-1.3 0.13-2.7 0-4.6-2-5.1-4.9-0.089-0.52-0.18-1.1-0.18-1.8v-11h-3.8zm-8.4-1.9c0.042 2.4-1 6.2-5.3 6.2-3.9 0-5.5-3.6-5.8-6.2zm-11-2.7c0.089-5.2 3.4-7.3 7.2-7.3 2.7 0 4.4 0.48 5.8 1.1l0.65-2.7c-1.3-0.61-3.6-1.3-7-1.3-6.4 0-10 4.3-10 11 0 6.3 3.7 11 9.8 11 6.8 0 8.7-6 8.7-9.9 0-0.78-0.086-1.4-0.13-1.8zm-11 2.7c0.042 2.4-1 6.2-5.3 6.2-3.9 0-5.5-3.6-5.8-6.2zm-11-2.7c0.088-5.2 3.4-7.3 7.2-7.3 2.7 0 4.4 0.48 5.8 1.1l0.65-2.7c-1.3-0.61-3.6-1.3-7-1.3-6.4 0-10 4.3-10 11 0 6.3 3.7 11 9.8 11 6.8 0 8.7-6 8.7-9.9 0-0.78-0.084-1.4-0.13-1.8zm-26 5.5c0 2.2-0.044 3.9-0.17 5.7h3.4l0.22-3.5h0.088c1 2 3.5 3.9 6.9 3.9 2.9 0 7.4-1.7 7.4-8.9v-13h-3.8v12c0 3.4-1.3 6.2-4.8 6.2-2.5 0-4.5-1.8-5.1-3.9-0.17-0.48-0.26-1.1-0.26-1.8v-13h-3.8zm-10-15v21h3.8v-21zm4.2 27c0.044-1.3-0.91-2.3-2.4-2.3-1.3 0-2.3 1-2.3 2.3 0 1.3 1 2.4 2.4 2.4 1.4 0 2.3-1 2.3-2.4zm-14-14c0 0.65-0.043 1.2-0.21 1.7-0.69 2.2-2.6 4-5.3 4-3.6 0-6.2-3.1-6.2-7.9 0-4.1 2.1-7.6 6.2-7.6 2.3 0 4.5 1.5 5.3 3.9 0.22 0.65 0.3 1.4 0.3 2zm3.9 8.3c-0.089-1.5-0.18-3.2-0.18-5.8v-12c0-4.8-0.95-7.8-3-9.6-2-1.9-5-2.5-7.6-2.5-2.5 0-5.3 0.61-7 1.7l0.95 2.9c1.4-0.87 3.5-1.6 6.1-1.6 3.9 0 6.8 2 6.8 7.3v2.3h-0.087c-1.2-2-3.4-3.5-6.7-3.5-5.2 0-8.9 4.4-8.9 10 0 7.1 4.6 11 9.4 11 3.6 0 5.6-1.9 6.5-3.6h0.086l0.17 3.2zm-42-5.7c0 2.2-0.044 3.9-0.17 5.7h3.4l0.21-3.5h0.09c1 2 3.5 3.9 6.9 3.9 2.9 0 7.4-1.7 7.4-8.9v-13h-3.8v12c0 3.4-1.3 6.2-4.8 6.2-2.5 0-4.5-1.8-5.1-3.9-0.17-0.48-0.26-1.1-0.26-1.8v-13h-3.8zm-6.1-1.6h-11v-11h13v-3.2h-16v29h16v-3.2h-12v-9.2h11zm-37-14v18h-2.9v2.9h2.9v1c0 2.9 0.65 5.6 2.4 7.3 1.4 1.4 3.3 2 5.1 2 1.3 0 2.5-0.3 3.2-0.61l-0.52-3c-0.56 0.26-1.3 0.48-2.4 0.48-3.2 0-4.1-2.9-4.1-6.1v-1.1h5.1v-2.9h-5.1v-18zm-22 10c0-4.6 2.6-8.1 6.4-8.1 3.6 0 6.4 3.4 6.4 8.2 0 3.6-1.8 8.1-6.3 8.1-4.5 0-6.4-4.2-6.4-8.2zm17 0.22c0-7.8-5.4-11-10-11-5.7 0-10 4.2-10 11 0 7 4.6 11 10 11 6 0 10-4.4 10-11zm-37 1.9c0.045 2.4-1 6.2-5.3 6.2-3.9 0-5.5-3.6-5.8-6.2zm-11-2.7c0.085-5.2 3.4-7.3 7.2-7.3 2.7 0 4.4 0.48 5.8 1.1l0.65-2.7c-1.3-0.61-3.6-1.3-7-1.3-6.5 0-10 4.3-10 11 0 6.3 3.7 11 9.8 11 6.8 0 8.7-6 8.7-9.9 0-0.78-0.085-1.4-0.13-1.8zm-12 2.9c0 0.65-0.045 1.2-0.22 1.7-0.69 2.2-2.6 4-5.3 4-3.6 0-6.2-3.1-6.2-7.9 0-4.1 2.1-7.6 6.2-7.6 2.3 0 4.5 1.5 5.3 3.9 0.22 0.65 0.3 1.4 0.3 2zm3.9 8.3c-0.084-1.5-0.17-3.2-0.17-5.8v-12c0-4.8-0.95-7.8-3-9.6-2-1.9-5-2.5-7.6-2.5-2.5 0-5.3 0.61-7 1.7l0.95 2.9c1.4-0.87 3.6-1.6 6.1-1.6 3.9 0 6.7 2 6.7 7.3v2.3h-0.086c-1.2-2-3.4-3.5-6.7-3.5-5.2 0-8.9 4.4-8.9 10 0 7.1 4.6 11 9.4 11 3.6 0 5.6-1.9 6.5-3.6h0.086l0.17 3.2zm-26-8.5c0.041 2.4-0.99 6.2-5.3 6.2-3.9 0-5.5-3.6-5.8-6.2zm-11-2.7c0.089-5.2 3.4-7.3 7.2-7.3 2.7 0 4.4 0.48 5.8 1.1l0.65-2.7c-1.3-0.61-3.6-1.3-7-1.3-6.4 0-10 4.3-10 11 0 6.3 3.7 11 9.8 11 6.8 0 8.7-6 8.7-9.9 0-0.78-0.086-1.4-0.13-1.8zm-12 21h3.8v-31h-3.8zm-10 0h3.8v-31h-3.8zm-21-20c0-4.6 2.6-8.1 6.4-8.1 3.6 0 6.4 3.4 6.4 8.2 0 3.6-1.8 8.1-6.3 8.1-4.5 0-6.5-4.2-6.5-8.2zm17 0.22c0-7.8-5.4-11-10-11-5.7 0-10 4.2-10 11 0 7 4.6 11 10 11 6 0 10-4.4 10-11zm-23-9.7c-1.4-0.69-4.2-1.4-7.7-1.4-8.2 0-14 5.2-14 15 0 9.2 6.2 15 15 15 3.6 0 5.9-0.78 6.9-1.3l-0.91-3.1c-1.4 0.69-3.5 1.2-5.9 1.2-6.8 0-11-4.4-11-12 0-7.2 4.1-12 11-12 2.3 0 4.6 0.48 6.1 1.2zm132 79c-0.56 0.2-2.7 0.89-4.7 0.89-4.3 0-6-2.3-6-4.4 0-2.7 2-3.9 4.3-4.5l3.6-0.95c5.1-1.4 11-3.5 11-11 0-7-4.5-12-14-12-3.8 0-7.8 0.42-12 2v9.7h6.6v-4.7c1-0.29 4-1 6.5-1 3.9 0 5.8 1.6 5.8 4.4 0 2.3-1.3 4-6 5.2l-3.1 0.86c-7.1 1.9-9.6 5.4-9.6 11 0 5.8 3.9 10 14 10 4.2 0 8.4-0.73 11-1.9v-8.8h-6.6zm47-19c-6 0-7.8-1.3-7.8-3.6 0-1.6 1.1-3.3 4-3.3 2.9 0 5.9 2.3 5.9 6.9zm2.1 5.8c0 3.8-1.8 5.2-5.5 5.2-2.4 0-4-0.61-4.5-0.79v-3.7h-5.9v7c0.98 0.56 5.4 2.8 10 2.8 7.6 0 13-3.1 13-11v-12h2.8v-5.3h-8.8l-0.21 3.7h-0.11c-0.54-0.76-2.5-4.4-8.7-4.4-6.2 0-9.1 3.7-9.1 8 0 5.2 4 8.8 14 8.8h3.3zm-35 16h7.3v-5.9h7.3v-5.3h-7.3v-12c0-3.7 1.3-4.8 4.3-4.8 1.1 0 2.7 0.3 3.3 0.42v-5.2c-0.6-0.18-3.3-0.87-6-0.87-5.4 0-8.9 2.9-8.9 7.7v15h-3.7v5.3h3.7zm49 0h7.3v-5.9h7.3v-5.3h-7.3v-12c0-3.7 1.3-4.8 4.3-4.8 1.1 0 2.7 0.3 3.3 0.42v-5.2c-0.6-0.18-3.3-0.87-6-0.87-5.4 0-8.9 2.9-8.9 7.7v15h-3.7v5.3h3.7zm-117-11h-3.6v5.3h10l0.2-3.6h0.1c0.48 0.76 2.9 4.2 8.4 4.2 6.9 0 11-4.9 11-11v-12h3.1v-5.3h-13v5.3h3v10c0 3.8-2.1 5.9-5.6 5.9-3.1 0-5.5-1.8-5.5-5.9v-10h3.1v-5.3h-13v5.3h3zm-36 0h-3.6v5.3h10l0.2-3.6h0.1c0.48 0.76 2.9 4.2 8.4 4.2 6.9 0 11-4.9 11-11v-12h3.1v-5.3h-13v5.3h3v10c0 3.8-2.1 5.9-5.6 5.9-3.1 0-5.5-1.8-5.5-5.9v-10h3.1v-5.3h-13v5.3h3zm188-5c0 3.8-2.1 5.9-5.5 5.9-3.3 0-5.3-2.2-5.6-5.9zm-11-5c0.21-4.4 3.6-7 8.7-7 4.5 0 7.3 1.3 8.5 1.7v-5.7c-1.1-0.45-4.2-1.7-10-1.7-11 0-15 6.6-15 14 0 8.5 5.2 14 14 14 9.4 0 13-7.1 13-16zm-191 5c0 3.8-2.1 5.9-5.5 5.9-3.3 0-5.3-2.2-5.6-5.9zm-11-5c0.21-4.4 3.6-7 8.7-7 4.5 0 7.3 1.3 8.5 1.7v-5.7c-1.1-0.45-4.2-1.7-10-1.7-11 0-15 6.6-15 14 0 8.5 5.2 14 14 14 9.4 0 13-7.1 13-16zm-24 7.4c3.8 0 6.3 2.2 6.3 5.9 0 3.4-2.2 5.9-6.4 5.9h-4.7v-12zm-12 12h-3.6v5.3h17c8.8 0 13-4.7 13-11 0-7.9-6.2-11-13-11h-5.6v-8.8h3.6v-5.3h-15v5.3h3.6v26"/>
   <path d="m1051 302v27h7.5c4 0 7.2-1.3 9.5-3.8 2.4-2.5 3.5-5.7 3.5-9.5 0-3.9-1.2-7.1-3.4-9.6-2.3-2.5-5.5-3.8-9.6-3.8zm-148 0v12h9.1c1.9 0 3.5-0.56 4.7-1.7 1.2-1.1 1.8-2.6 1.8-4.5 0-1.9-0.61-3.3-1.8-4.5s-2.8-1.7-4.7-1.7zm304-6h6.8l19 27v-27h6.7v39h-6.4l-20-28v28h-6.7zm-56 0h6.7v39h-6.7zm-67 0h26v6h-19v10h19v6h-19v11h19v6h-26zm-40 0h14c5.9 0 11 1.8 14 5.4 3.7 3.6 5.5 8.2 5.5 14 0 5.7-1.8 10-5.5 14-3.7 3.6-8.5 5.4-14 5.4h-14zm-97 0h6.8l19 27v-27h6.7v39h-6.4l-20-28v28h-6.7zm-15 0h6.7v39h-6.7zm-36 0h17c3.7 0 6.7 1.1 9 3.4 2.3 2.2 3.4 5.2 3.4 8.7 0 3.2-0.87 5.8-2.6 7.8-1.7 1.9-3.9 3.1-6.4 3.6l9.3 15h-7.7l-8.4-14h-6.6v14h-6.7zm-33 0h26v6h-19v10h19v6h-19v11h19v6h-26zm-33 0h26v6h-19v10h19v6h-19v11h19v6h-26zm-41 0h6.8l19 27v-27h6.7v39h-6.4l-20-28v28h-6.7zm-15 0h6.7v39h-6.7zm-82 0h6.8l19 27v-27h6.7v39h-6.4l-20-28v28h-6.7zm-33 0h26v6h-19v10h19v6h-19v11h19v6h-26zm471-0.58c5.8 0 11 1.8 14 5.4l-3.8 5c-2.9-2.9-6.6-4.4-11-4.4-2 0-3.5 0.43-4.7 1.3-1.2 0.87-1.7 2-1.7 3.5 0 0.96 0.41 1.8 1.2 2.4 0.82 0.66 1.9 1.2 3.2 1.6s2.7 0.8 4.3 1.2c1.6 0.39 3.2 0.86 4.7 1.4 1.6 0.56 3 1.2 4.3 2.1 1.3 0.81 2.3 1.9 3.2 3.4s1.2 3.1 1.2 5.1c0 3.5-1.2 6.3-3.7 8.6-2.5 2.2-6.1 3.4-11 3.4-6.5 0-12-2-15-6.1l3.7-5.2c3.3 3.6 7.3 5.3 12 5.3 2.6 0 4.5-0.52 5.7-1.6 1.3-1 1.9-2.3 1.9-3.7 0-1.5-0.76-2.6-2.3-3.5s-3.4-1.6-5.5-2.1c-2.2-0.5-4.3-1.1-6.5-1.8-2.2-0.69-4-1.9-5.6-3.5-1.5-1.7-2.3-3.8-2.3-6.4 0-3.2 1.3-5.9 3.8-8.1 2.6-2.1 5.9-3.2 10-3.2zm55-0.058c6.5 0 12 2.7 15 8l-5.5 3.1c-1.1-1.5-2.5-2.7-4.2-3.7-1.7-0.96-3.6-1.4-5.7-1.4-3.8 0-6.9 1.3-9.4 3.9-2.5 2.6-3.7 6-3.7 10s1.2 7.4 3.7 10c2.5 2.6 5.6 4 9.4 4 1.8 0 3.5-0.35 5.1-1 1.6-0.7 2.9-1.5 3.9-2.4v-6h-11v-6h18v14c-4.2 4.7-9.4 7-16 7-5.6 0-10-1.9-14-5.6-3.8-3.7-5.8-8.5-5.8-14s1.9-11 5.8-14c3.8-3.7 8.6-5.5 14-5.5zm-178 0c6.5 0 12 2.7 15 8l-5.5 3.1c-1.1-1.5-2.5-2.7-4.2-3.7-1.7-0.96-3.6-1.4-5.7-1.4-3.8 0-6.9 1.3-9.4 3.9-2.5 2.6-3.7 6-3.7 10s1.2 7.4 3.7 10c2.5 2.6 5.6 4 9.4 4 1.8 0 3.5-0.35 5.1-1 1.6-0.7 2.9-1.5 3.9-2.4v-6h-11v-6h18v14c-4.1 4.7-9.4 7-16 7-5.6 0-10-1.9-14-5.6s-5.8-8.5-5.8-14 1.9-11 5.8-14c3.8-3.7 8.6-5.5 14-5.5zm-255 0c6.5 0 12 2.7 15 8l-5.5 3.1c-1.1-1.5-2.5-2.7-4.2-3.7-1.7-0.96-3.6-1.4-5.7-1.4-3.8 0-6.9 1.3-9.4 3.9-2.5 2.6-3.7 6-3.7 10s1.2 7.4 3.7 10c2.5 2.6 5.6 4 9.4 4 1.8 0 3.5-0.35 5.1-1 1.6-0.7 2.9-1.5 3.9-2.4v-6h-11v-6h18v14c-4.1 4.7-9.4 7-16 7-5.6 0-10-1.9-14-5.6-3.8-3.7-5.8-8.5-5.8-14s1.9-11 5.8-14c3.8-3.7 8.6-5.5 14-5.5z"/>
   <path d="m988 371-6.8 18h14zm-314 0-6.8 18h14zm71-0.85v26h7.5c4 0 7.2-1.2 9.5-3.7 2.4-2.5 3.5-5.6 3.5-9.3 0-3.8-1.2-6.9-3.4-9.4-2.3-2.4-5.5-3.7-9.6-3.7zm332-0.56c-3.8 0-6.8 1.3-9.2 3.8-2.3 2.6-3.4 5.8-3.4 9.8s1.2 7.2 3.4 9.8c2.3 2.6 5.4 3.8 9.2 3.8 3.8 0 6.8-1.3 9.1-3.9 2.3-2.6 3.5-5.8 3.5-9.8 0-4-1.2-7.2-3.5-9.8-2.3-2.6-5.4-3.8-9.1-3.8zm-168 0c-3.8 0-6.9 1.3-9.2 3.8-2.3 2.6-3.4 5.8-3.4 9.8s1.2 7.2 3.4 9.8c2.3 2.6 5.3 3.8 9.2 3.8 3.8 0 6.8-1.3 9.1-3.9s3.5-5.8 3.5-9.8c0-4-1.2-7.2-3.5-9.8-2.3-2.6-5.4-3.8-9.1-3.8zm194-5.3h6.8l19 26v-26h6.7v38h-6.4l-20-27v27h-6.7zm-59 0h6.7v38h-6.7zm-35 0h30v5.8h-12v32h-6.7v-32h-12zm-25 0h8.3l15 38h-7.6l-2.8-7.2h-17l-2.8 7.2h-7.6zm-53 0h7.6l12 31 12-31h7.6l-15 38h-8.3zm-81 0h6.8l19 26v-26h6.7v38h-6.4l-20-27v27h-6.7zm-41 0h6.8l19 26v-26h6.7v38h-6.4l-20-27v27h-6.7zm-15 0h6.7v38h-6.7zm-56 0h14c5.9 0 11 1.8 14 5.3 3.7 3.5 5.5 8 5.5 14 0 5.5-1.8 10-5.5 14-3.7 3.5-8.5 5.3-14 5.3h-14zm-41 0h6.8l19 26v-26h6.7v38h-6.4l-20-27v27h-6.7zm-27 0h8.3l15 38h-7.6l-2.8-7.2h-17l-2.8 7.2h-7.6zm407-0.62c5.7 0 10 1.8 14 5.5s5.5 8.3 5.5 14-1.8 10-5.5 14-8.3 5.5-14 5.5c-5.7 0-10-1.8-14-5.5-3.6-3.7-5.5-8.3-5.5-14s1.8-10 5.5-14c3.6-3.7 8.3-5.5 14-5.5zm-168 0c5.7 0 10 1.8 14 5.5 3.6 3.7 5.5 8.3 5.5 14s-1.8 10-5.5 14c-3.6 3.7-8.3 5.5-14 5.5-5.7 0-10-1.8-14-5.5-3.6-3.7-5.5-8.3-5.5-14s1.8-10 5.5-14c3.6-3.7 8.3-5.5 14-5.5z"/>
   <path d="m616 287c0-0.28 0.22-0.5 0.5-0.5h2c0.28 0 0.5 0.22 0.5 0.5v132c0 0.27-0.22 0.5-0.5 0.5h-2c-0.28 0-0.5-0.22-0.5-0.5z"/>
  </g>
 </g>
</svg>
